# xmcd
#
# Track frame offsets: 
#        150
#        9229
#        23252
#        31515
#        42215
#        58809
#        69272
#        81961
#        96245
#        108691
#        116845
#        154856
#        166533
#        174325
#        187607
#        201016
#        212953
#        228937
#
# Disc length: 3228 seconds
#
# Revision: 0
# Processed by: cddbd v1.5.2PL0 Copyright (c) Steve Scherf et al.
# Submitted via: ExactAudioCopy v1.0b3
#
DISCID=d30c9a12
DTITLE=Pink Champagne - Tant Strul - Proggladan-Box B [CD 8: 1980)
DYEAR=2013
DGENRE=Swedish Progg
TTITLE0=Pink Champagne - Poem Av Rimbaud
TTITLE1=Pink Champagne - Jag Kan, Jag Vill Och Jag Gör Det
TTITLE2=Pink Champagne - Vi Ar En Särskild Sort
TTITLE3=Pink Champagne - Söndsgsskolehyckel
TTITLE4=Pink Champagne - Vågar Du?
TTITLE5=Pink Champagne - Siden, Sammet
TTITLE6=Pink Champagne - Stålmannen
TTITLE7=Pink Champagne - Alternativa Förhållanden
TTITLE8=Pink Champagne - Tjuven
TTITLE9=Pink Champagne - Vildkatt
TTITLE10=samtal med Tant Strul och Pink Champagne
TTITLE11=Tant Strul - Tyst Och Snäll
TTITLE12=Tant Strul - Konsum
TTITLE13=Tant Strul - Pelle Snusk
TTITLE14=Tant Strul - Tomheten
TTITLE15=Tant Strul - Tid Att Leva
TTITLE16=Tant Strul - Tunnelbanan
TTITLE17=Tant Strul - Min Pappa Har Träffat En Annan Tant
EXTD=
EXTT0=
EXTT1=
EXTT2=
EXTT3=
EXTT4=
EXTT5=
EXTT6=
EXTT7=
EXTT8=
EXTT9=
EXTT10=
EXTT11=
EXTT12=
EXTT13=
EXTT14=
EXTT15=
EXTT16=
EXTT17=
PLAYORDER=
